<svg width="100" height="100" viewBox="0 0 100 100" fill="none" xmlns="http://www.w3.org/2000/svg">
  <!-- Background circle -->
  <circle cx="50" cy="50" r="45" fill="#1E3A8A" stroke="#FFD700" stroke-width="4"/>
  
  <!-- Shield shape -->
  <path d="M50 15 L70 25 L70 45 C70 55 60 65 50 75 C40 65 30 55 30 45 L30 25 Z" fill="#FFD700"/>
  
  <!-- Inner shield -->
  <path d="M50 20 L65 28 L65 42 C65 50 57 58 50 65 C43 58 35 50 35 42 L35 28 Z" fill="#1E3A8A"/>
  
  <!-- UNHAS text -->
  <text x="50" y="45" font-family="Arial, sans-serif" font-size="8" font-weight="bold" text-anchor="middle" fill="#FFD700">UNHAS</text>
  
  <!-- Star -->
  <polygon points="50,30 52,36 58,36 53,40 55,46 50,42 45,46 47,40 42,36 48,36" fill="#FFD700"/>
</svg>
